<svg xmlns="http://www.w3.org/2000/svg" xmlns:xlink="http://www.w3.org/1999/xlink" viewBox="0 0 166.67 500"><defs><style>.cls-1{fill:none;}.cls-2{fill:#af80f9;}.cls-3{fill:#f9c7e4;}.cls-4{fill:#e7c9f7;}.cls-5{fill:#efa5cc;}.cls-6{fill:#f6cccf;}.cls-7{fill:#f6ccb3;}.cls-8{fill:url(#New_Pattern_3);}</style><pattern id="New_Pattern_3" data-name="New Pattern 3" width="120" height="120" patternUnits="userSpaceOnUse" viewBox="0 0 120 120"><rect class="cls-1" width="120" height="120"/><path class="cls-2" d="M19.29,115.33v5.17a1.5,1.5,0,0,0,3,0v-5.17a1.5,1.5,0,0,0-3,0Z"/><path class="cls-2" d="M68.79,115.33v5.17a1.5,1.5,0,0,0,3,0v-5.17a1.5,1.5,0,0,0-3,0Z"/><path class="cls-2" d="M105.5,115.33v5.17a1.5,1.5,0,0,0,3,0v-5.17a1.5,1.5,0,0,0-3,0Z"/><path class="cls-3" d="M1.45,4.5V20.33a1.5,1.5,0,0,0,3,0V4.5a1.5,1.5,0,0,0-3,0Z"/><path class="cls-2" d="M1.45,27.5v5.17a1.5,1.5,0,0,0,3,0V27.5a1.5,1.5,0,0,0-3,0Z"/><path class="cls-4" d="M1.45,41.67v4.5a1.5,1.5,0,0,0,3,0v-4.5a1.5,1.5,0,0,0-3,0Z"/><path class="cls-5" d="M1.45,53.5V74a1.5,1.5,0,0,0,3,0V53.5a1.5,1.5,0,0,0-3,0Z"/><path class="cls-6" d="M1.45,82.17v5a1.5,1.5,0,0,0,3,0v-5a1.5,1.5,0,0,0-3,0Z"/><path class="cls-7" d="M1.45,97v11.83a1.5,1.5,0,0,0,3,0V97a1.5,1.5,0,0,0-3,0Z"/><path class="cls-2" d="M1.45,115.5v3.17a1.5,1.5,0,0,0,3,0V115.5a1.5,1.5,0,0,0-3,0Z"/><path class="cls-2" d="M19.29-4.67V.5a1.5,1.5,0,0,0,3,0V-4.67a1.5,1.5,0,0,0-3,0Z"/><path class="cls-4" d="M19.29,9.5V14a1.5,1.5,0,0,0,3,0V9.5a1.5,1.5,0,0,0-3,0Z"/><path class="cls-5" d="M19.29,21.33v20.5a1.5,1.5,0,0,0,3,0V21.33a1.5,1.5,0,0,0-3,0Z"/><path class="cls-6" d="M19.29,50v5a1.5,1.5,0,0,0,3,0V50a1.5,1.5,0,0,0-3,0Z"/><path class="cls-6" d="M19.29,92v17a1.5,1.5,0,0,0,3,0V92a1.5,1.5,0,0,0-3,0Z"/><path class="cls-7" d="M19.29,64.83V76.67a1.5,1.5,0,0,0,3,0V64.83a1.5,1.5,0,0,0-3,0Z"/><path class="cls-2" d="M19.29,83.33V86.5a1.5,1.5,0,0,0,3,0V83.33a1.5,1.5,0,0,0-3,0Z"/><path class="cls-3" d="M35.5,28.33V44.17a1.5,1.5,0,0,0,3,0V28.33a1.5,1.5,0,0,0-3,0Z"/><path class="cls-2" d="M35.5,51.33V56.5a1.5,1.5,0,0,0,3,0V51.33a1.5,1.5,0,0,0-3,0Z"/><path class="cls-4" d="M35.5,65.5V70a1.5,1.5,0,0,0,3,0V65.5a1.5,1.5,0,0,0-3,0Z"/><path class="cls-5" d="M35.5,77.33v20.5a1.5,1.5,0,0,0,3,0V77.33a1.5,1.5,0,0,0-3,0Z"/><path class="cls-6" d="M35.5,106v5a1.5,1.5,0,0,0,3,0v-5a1.5,1.5,0,0,0-3,0Z"/><path class="cls-6" d="M35.5,15.5v5a1.5,1.5,0,0,0,3,0v-5a1.5,1.5,0,0,0-3,0Z"/><path class="cls-7" d="M35.5,118.83v11.84a1.5,1.5,0,0,0,3,0V118.83a1.5,1.5,0,0,0-3,0Z"/><path class="cls-3" d="M53,4.5V20.33a1.5,1.5,0,0,0,3,0V4.5a1.5,1.5,0,0,0-3,0Z"/><path class="cls-2" d="M53,27.5v5.17a1.5,1.5,0,0,0,3,0V27.5a1.5,1.5,0,0,0-3,0Z"/><path class="cls-4" d="M53,41.67v4.5a1.5,1.5,0,0,0,3,0v-4.5a1.5,1.5,0,0,0-3,0Z"/><path class="cls-5" d="M53,53.5V74a1.5,1.5,0,0,0,3,0V53.5a1.5,1.5,0,0,0-3,0Z"/><path class="cls-6" d="M53,82.17v5a1.5,1.5,0,0,0,3,0v-5a1.5,1.5,0,0,0-3,0Z"/><path class="cls-7" d="M53,97v11.83a1.5,1.5,0,0,0,3,0V97a1.5,1.5,0,0,0-3,0Z"/><path class="cls-2" d="M53,115.5v3.17a1.5,1.5,0,0,0,3,0V115.5a1.5,1.5,0,0,0-3,0Z"/><path class="cls-2" d="M68.79-4.67V.5a1.5,1.5,0,0,0,3,0V-4.67a1.5,1.5,0,0,0-3,0Z"/><path class="cls-4" d="M68.79,9.5V14a1.5,1.5,0,0,0,3,0V9.5a1.5,1.5,0,0,0-3,0Z"/><path class="cls-5" d="M68.79,21.33v20.5a1.5,1.5,0,0,0,3,0V21.33a1.5,1.5,0,0,0-3,0Z"/><path class="cls-6" d="M68.79,50v5a1.5,1.5,0,0,0,3,0V50a1.5,1.5,0,0,0-3,0Z"/><path class="cls-6" d="M68.79,92v17a1.5,1.5,0,0,0,3,0V92a1.5,1.5,0,0,0-3,0Z"/><path class="cls-7" d="M68.79,64.83V76.67a1.5,1.5,0,0,0,3,0V64.83a1.5,1.5,0,0,0-3,0Z"/><path class="cls-2" d="M68.79,83.33V86.5a1.5,1.5,0,0,0,3,0V83.33a1.5,1.5,0,0,0-3,0Z"/><path class="cls-2" d="M105.5-4.67V.5a1.5,1.5,0,0,0,3,0V-4.67a1.5,1.5,0,0,0-3,0Z"/><path class="cls-4" d="M105.5,9.5V14a1.5,1.5,0,0,0,3,0V9.5a1.5,1.5,0,0,0-3,0Z"/><path class="cls-5" d="M105.5,21.33v20.5a1.5,1.5,0,0,0,3,0V21.33a1.5,1.5,0,0,0-3,0Z"/><path class="cls-6" d="M105.5,50v5a1.5,1.5,0,0,0,3,0V50a1.5,1.5,0,0,0-3,0Z"/><path class="cls-6" d="M105.5,92v17a1.5,1.5,0,0,0,3,0V92a1.5,1.5,0,0,0-3,0Z"/><path class="cls-7" d="M105.5,64.83V76.67a1.5,1.5,0,0,0,3,0V64.83a1.5,1.5,0,0,0-3,0Z"/><path class="cls-2" d="M105.5,83.33V86.5a1.5,1.5,0,0,0,3,0V83.33a1.5,1.5,0,0,0-3,0Z"/><path class="cls-3" d="M86,28.33V44.17a1.5,1.5,0,0,0,3,0V28.33a1.5,1.5,0,0,0-3,0Z"/><path class="cls-2" d="M86,51.33V56.5a1.5,1.5,0,0,0,3,0V51.33a1.5,1.5,0,0,0-3,0Z"/><path class="cls-4" d="M86,65.5V70a1.5,1.5,0,0,0,3,0V65.5a1.5,1.5,0,0,0-3,0Z"/><path class="cls-5" d="M86,77.33v20.5a1.5,1.5,0,0,0,3,0V77.33a1.5,1.5,0,0,0-3,0Z"/><path class="cls-6" d="M86,106v5a1.5,1.5,0,0,0,3,0v-5a1.5,1.5,0,0,0-3,0Z"/><path class="cls-6" d="M86,15.5v5a1.5,1.5,0,0,0,3,0v-5a1.5,1.5,0,0,0-3,0Z"/><path class="cls-7" d="M86,118.83v11.84a1.5,1.5,0,0,0,3,0V118.83a1.5,1.5,0,0,0-3,0Z"/><path class="cls-2" d="M1.45-4.5v3.17a1.5,1.5,0,0,0,3,0V-4.5a1.5,1.5,0,0,0-3,0Z"/><path class="cls-7" d="M35.5-1.17V10.67a1.5,1.5,0,0,0,3,0V-1.17a1.5,1.5,0,0,0-3,0Z"/><path class="cls-2" d="M53-4.5v3.17a1.5,1.5,0,0,0,3,0V-4.5a1.5,1.5,0,0,0-3,0Z"/><path class="cls-7" d="M86-1.17V10.67a1.5,1.5,0,0,0,3,0V-1.17a1.5,1.5,0,0,0-3,0Z"/></pattern></defs><g id="Capa_2" data-name="Capa 2"><g id="PATTERN"><rect class="cls-8" width="166.67" height="500"/></g></g></svg>