<svg xmlns="http://www.w3.org/2000/svg" xmlns:xlink="http://www.w3.org/1999/xlink" viewBox="0 0 166.67 500"><defs><style>.cls-1{fill:none;}.cls-2{fill:#f9b2bf;}.cls-3{fill:#e8c6f7;}.cls-4{fill:#fcddb1;}.cls-5{fill:#f7e9da;}.cls-6{fill:url(#New_Pattern_2);}</style><pattern id="New_Pattern_2" data-name="New Pattern 2" width="120" height="120" patternUnits="userSpaceOnUse" viewBox="0 0 120 120"><rect class="cls-1" width="120" height="120"/><path class="cls-2" d="M97.26,124.92a5.32,5.32,0,0,1-5.85.94c-2.73-1.42,1.09-5.26,2.53-5.87,1.78-.75.83-3.6-1-2.85-3.91,1.65-7.49,6.93-4,10.66,2.81,3,7.93,1.4,10.5-.93,1.43-1.29-.86-3.24-2.27-2Z"/><path class="cls-2" d="M49.47,111.36A5.31,5.31,0,0,1,52,106c2.7-1.48,3.76,3.84,3.46,5.38-.37,1.89,2.52,2.69,2.89.8.81-4.17-1.57-10.09-6.63-9.23-4,.68-5.59,5.79-5.09,9.23.27,1.91,3.16,1.09,2.89-.8Z"/><path class="cls-3" d="M25.55,21.6a5.3,5.3,0,0,1,2.13,5.52c-.82,3-5.38,0-6.27-1.26-1.1-1.58-3.69-.07-2.59,1.52,2.43,3.49,8.33,5.89,11.25,1.67C32.38,25.68,29.8,21,27,19c-1.56-1.14-3,1.51-1.44,2.63Z"/><path class="cls-2" d="M90.91,89.86a3.06,3.06,0,0,0,4.63.08,1.52,1.52,0,0,0,.18-2.11,1.49,1.49,0,0,0-2.11-.18,2.5,2.5,0,0,1-.39.34c.15-.09.15-.1,0,0-.35.17.3,0-.07,0q-.27,0,.06,0c-.17,0-.15,0,0,0-.15-.07-.14-.06,0,0-.31-.19.15.2-.09-.1a1.5,1.5,0,0,0-2.29,1.93Z"/><path class="cls-2" d="M98.16,39.23a3.06,3.06,0,0,0,4.63.08A1.52,1.52,0,0,0,103,37.2a1.49,1.49,0,0,0-2.11-.18,3.25,3.25,0,0,1-.39.35c.15-.1.16-.11,0,0-.35.17.3-.05-.07,0q-.27,0,.06,0c-.17,0-.15,0,0,0-.15-.07-.14-.06,0,0-.31-.19.15.2-.09-.1a1.5,1.5,0,0,0-2.29,1.93Z"/><path class="cls-2" d="M48,6.69a3.06,3.06,0,0,0,4.63.08,1.52,1.52,0,0,0,.18-2.11,1.49,1.49,0,0,0-2.11-.18,3.25,3.25,0,0,1-.39.35c.15-.1.16-.11,0,0-.35.18.3,0-.07,0q-.26,0,.06,0c-.17,0-.15,0,0,0-.15-.06-.14-.06,0,0-.3-.19.16.2-.09-.1A1.5,1.5,0,1,0,48,6.69Z"/><path class="cls-4" d="M11.91,45.86a3.06,3.06,0,0,0,4.63.08,1.52,1.52,0,0,0,.18-2.11,1.49,1.49,0,0,0-2.11-.18,3.17,3.17,0,0,1-.39.34c.15-.09.16-.1,0,0-.35.17.3,0-.07,0q-.27,0,.06,0c-.17,0-.15,0,0,0-.15-.07-.14-.06,0,0-.31-.19.15.2-.09-.11a1.5,1.5,0,0,0-2.29,1.94Z"/><path class="cls-4" d="M81.76,34.36a5.31,5.31,0,0,1-3.85,4.5c-3,.68-2.57-4.72-1.86-6.12.87-1.72-1.69-3.28-2.57-1.56C71.56,35,72.24,41.31,77.35,41.87c4.05.45,7-4,7.41-7.49.26-1.91-2.75-1.91-3,0Z"/><path class="cls-2" d="M97.26,4.92a5.32,5.32,0,0,1-5.85.94C88.68,4.44,92.5.6,93.94,0c1.78-.75.83-3.6-1-2.85C89.08-1.21,85.5,4.07,89,7.8c2.81,3,7.93,1.4,10.5-.93,1.43-1.29-.86-3.24-2.27-1.95Z"/><path class="cls-4" d="M11.76,7.36a5.31,5.31,0,0,1-3.85,4.5c-3,.68-2.57-4.72-1.86-6.12C6.92,4,4.36,2.46,3.48,4.18,1.56,8,2.24,14.31,7.35,14.87c4.05.45,7-4,7.41-7.49.26-1.91-2.75-1.91-3,0Z"/><path class="cls-3" d="M72.7,94.74a3.07,3.07,0,0,0-4.44-1.34,1.54,1.54,0,0,0-.75,2,1.51,1.51,0,0,0,2,.75,2.82,2.82,0,0,1,.46-.23c-.17,0-.17.06,0,0,.38-.07-.3,0,.07,0h0c.15.06.14,0,0,0,.13.1.12.09,0,0,.24.26-.1-.24,0,.12a1.5,1.5,0,0,0,2.74-1.24Z"/><path class="cls-3" d="M42.35,71.7a3.07,3.07,0,0,0-4.44-1.34,1.53,1.53,0,0,0-.75,2,1.5,1.5,0,0,0,2,.75,4,4,0,0,1,.46-.23c-.17,0-.17.06,0,0,.38-.07-.3,0,.07,0,.17,0,.15,0-.06,0,.16.07.14.06,0,0,.12.1.12.09,0,0,.24.27-.1-.23,0,.13a1.51,1.51,0,0,0,2,.74,1.53,1.53,0,0,0,.75-2Z"/><path class="cls-4" d="M38.91,38.71l5.89,5.9a1.5,1.5,0,0,0,2.12-2.13L41,36.59a1.5,1.5,0,0,0-2.12,2.12Z"/><path class="cls-4" d="M39,36.54l-5.9,5.89a1.5,1.5,0,0,0,2.13,2.12l5.89-5.89A1.5,1.5,0,0,0,39,36.54Z"/><path class="cls-4" d="M41.1,48.31l-5.89-5.9a1.5,1.5,0,0,0-2.13,2.12l5.9,5.9a1.5,1.5,0,0,0,2.12-2.12Z"/><path class="cls-4" d="M41,50.48l5.89-5.89a1.5,1.5,0,0,0-2.12-2.12l-5.89,5.89A1.5,1.5,0,0,0,41,50.48Z"/><path class="cls-5" d="M113.56,82.41l5.89,5.89a1.5,1.5,0,0,0,2.12-2.12l-5.89-5.89a1.5,1.5,0,0,0-2.12,2.12Z"/><path class="cls-5" d="M113.62,80.24l-5.89,5.89a1.5,1.5,0,0,0,2.12,2.12l5.9-5.89a1.5,1.5,0,0,0-2.13-2.12Z"/><path class="cls-5" d="M115.75,92l-5.9-5.89a1.5,1.5,0,0,0-2.12,2.12l5.89,5.89A1.5,1.5,0,0,0,115.75,92Z"/><path class="cls-5" d="M115.68,94.18c2-2,3.93-3.93,5.89-5.89a1.5,1.5,0,0,0-2.12-2.13l-5.89,5.9a1.5,1.5,0,0,0,2.12,2.12Z"/><path class="cls-3" d="M6.71,59,13,64.45a1.5,1.5,0,0,0,2-2.27L8.67,56.73a1.5,1.5,0,0,0-2,2.27Z"/><path class="cls-3" d="M6.62,56.83,1.17,63.14a1.5,1.5,0,0,0,2.27,2l5.45-6.31a1.5,1.5,0,0,0-2.27-2Z"/><path class="cls-3" d="M9.59,68.41,3.29,63a1.5,1.5,0,0,0-2,2.27l6.3,5.45a1.5,1.5,0,0,0,2-2.27Z"/><path class="cls-3" d="M9.68,70.58l5.45-6.3a1.5,1.5,0,0,0-2.27-2l-5.45,6.3a1.5,1.5,0,0,0,2.27,2Z"/><path class="cls-4" d="M65.41,79.86h3.75a1.5,1.5,0,0,0,0-3H65.41a1.5,1.5,0,0,0,0,3Z"/><path class="cls-3" d="M15.16,112.86h3.75a1.5,1.5,0,0,0,0-3H15.16a1.5,1.5,0,0,0,0,3Z"/><path class="cls-3" d="M59.91,55.36h3.75a1.5,1.5,0,0,0,0-3H59.91a1.5,1.5,0,0,0,0,3Z"/><path class="cls-3" d="M75.41,18.36h3.75a1.5,1.5,0,0,0,0-3H75.41a1.5,1.5,0,0,0,0,3Z"/><path class="cls-3" d="M86.41,60.36h3.75a1.5,1.5,0,0,0,0-3H86.41a1.5,1.5,0,0,0,0,3Z"/><path class="cls-3" d="M113.41,112.36h3.75a1.5,1.5,0,0,0,0-3h-3.75a1.5,1.5,0,0,0,0,3Z"/><path class="cls-4" d="M16.41,92.86h3.75a1.5,1.5,0,0,0,0-3H16.41a1.5,1.5,0,0,0,0,3Z"/><path class="cls-4" d="M77.41,116.36h3.75a1.5,1.5,0,0,0,0-3H77.41a1.5,1.5,0,0,0,0,3Z"/><path class="cls-4" d="M110.91,21.36h3.75a1.5,1.5,0,0,0,0-3h-3.75a1.5,1.5,0,0,0,0,3Z"/><path class="cls-5" d="M101.58,76.86a2.67,2.67,0,1,1-2.67-2.67A2.68,2.68,0,0,1,101.58,76.86Z"/><circle class="cls-5" cx="55.91" cy="21.86" r="2.67" transform="translate(-0.03 0.08) rotate(-0.08)"/><path class="cls-5" d="M37.08,97.86a2.67,2.67,0,1,1-2.67-2.67A2.68,2.68,0,0,1,37.08,97.86Z"/><circle class="cls-5" cx="116.08" cy="45.86" r="2.67"/><path class="cls-5" d="M-6.44,82.41-.55,88.3a1.5,1.5,0,0,0,2.12-2.12l-5.89-5.89a1.5,1.5,0,0,0-2.12,2.12Z"/><path class="cls-5" d="M-4.32,94.18c2-2,3.93-3.93,5.89-5.89A1.5,1.5,0,0,0-.55,86.16l-5.89,5.9a1.5,1.5,0,0,0,2.12,2.12Z"/></pattern></defs><g id="Capa_2" data-name="Capa 2"><g id="PATTERN"><rect class="cls-6" width="166.67" height="500"/></g></g></svg>