<svg xmlns="http://www.w3.org/2000/svg" xmlns:xlink="http://www.w3.org/1999/xlink" viewBox="0 0 166.67 500"><defs><style>.cls-1{fill:none;}.cls-2{fill:#f69793;}.cls-3{fill:#f697b5;}.cls-4{fill:#f6c0b5;}.cls-5{fill:#f6cfd8;}.cls-6{fill:#f6f4f1;}.cls-7{fill:url(#New_Pattern);}</style><pattern id="New_Pattern" data-name="New Pattern" width="150" height="149" patternUnits="userSpaceOnUse" viewBox="0 0 150 149"><rect class="cls-1" width="150" height="149"/><path class="cls-2" d="M56.84,82.69c-.82,1.74.52,3.2,1.61,4.44s2.8,2.84,4.63,3A1.92,1.92,0,0,0,65,88.16c-.22-2.12-2.07-3.53-3.7-4.71a9,9,0,0,0-2.41-1.38c-.6-.2-1.74,0-2,.62Z"/><path class="cls-2" d="M64,81.84c-1.88-.44-3.79,1.26-5.16,2.33s-3.76,2.92-3.28,5.1a1.56,1.56,0,0,0,1.89,1.07c1.64-.23,2.94-2.45,4-3.56s2.83-2.37,3.11-4a.83.83,0,0,0-.56-1Z"/><path class="cls-3" d="M101.9,40.74c-.82,1.75.51,3.21,1.61,4.45s2.8,2.84,4.62,3a1.91,1.91,0,0,0,1.92-1.92c-.21-2.12-2.06-3.53-3.7-4.72a8.79,8.79,0,0,0-2.4-1.37c-.6-.2-1.74,0-2,.61Z"/><path class="cls-3" d="M109.05,39.9c-1.88-.45-3.79,1.25-5.16,2.32s-3.76,2.93-3.28,5.11a1.57,1.57,0,0,0,1.89,1.07c1.63-.23,2.94-2.45,4-3.57s2.83-2.36,3.11-3.95a.82.82,0,0,0-.56-1Z"/><path class="cls-4" d="M74.18,128.35c-.83,1.74.51,3.21,1.61,4.45s2.79,2.84,4.62,2.95a1.91,1.91,0,0,0,1.92-1.92c-.22-2.12-2.06-3.54-3.7-4.72a8.94,8.94,0,0,0-2.4-1.37c-.61-.2-1.74,0-2,.61Z"/><path class="cls-4" d="M81.32,127.51c-1.88-.45-3.79,1.25-5.15,2.32-1.52,1.19-3.77,2.93-3.29,5.11A1.57,1.57,0,0,0,74.77,136c1.64-.23,2.94-2.45,4-3.57s2.82-2.36,3.1-3.95a.8.8,0,0,0-.56-1Z"/><path class="cls-5" d="M9.56,34.06c-.83,1.74.51,3.2,1.61,4.44s2.79,2.84,4.62,3a1.91,1.91,0,0,0,1.92-1.92c-.22-2.12-2.06-3.53-3.7-4.71a8.86,8.86,0,0,0-2.4-1.38,1.85,1.85,0,0,0-2,.62Z"/><path class="cls-5" d="M16.7,33.21c-1.88-.45-3.79,1.26-5.15,2.33-1.52,1.19-3.77,2.92-3.29,5.1a1.56,1.56,0,0,0,1.89,1.07c1.64-.23,2.94-2.45,4-3.56S17,35.78,17.26,34.2a.81.81,0,0,0-.56-1Z"/><path class="cls-6" d="M125.57,83.08c-.82,1.74.51,3.2,1.61,4.44s2.79,2.85,4.62,3a1.91,1.91,0,0,0,1.92-1.92c-.22-2.12-2.06-3.53-3.7-4.71a9,9,0,0,0-2.4-1.38,1.87,1.87,0,0,0-2.05.62Z"/><path class="cls-6" d="M132.71,82.23c-1.88-.44-3.79,1.26-5.15,2.33-1.52,1.19-3.77,2.92-3.29,5.1a1.56,1.56,0,0,0,1.89,1.07c1.64-.23,3-2.45,4-3.56s2.82-2.37,3.1-4a.81.81,0,0,0-.56-1Z"/><path class="cls-6" d="M12.9,119.74c-.82,1.75.51,3.21,1.61,4.45s2.8,2.84,4.62,3a1.91,1.91,0,0,0,1.92-1.92c-.21-2.12-2.06-3.53-3.7-4.72a8.79,8.79,0,0,0-2.4-1.37c-.6-.2-1.74,0-2,.61Z"/><path class="cls-6" d="M20.05,118.9c-1.88-.45-3.79,1.25-5.16,2.32-1.52,1.19-3.76,2.93-3.28,5.11a1.56,1.56,0,0,0,1.89,1.07c1.63-.23,2.94-2.45,4-3.57s2.83-2.36,3.11-4a.82.82,0,0,0-.56-1Z"/><path class="cls-6" d="M61.24,24.08c-.83,1.74.51,3.2,1.6,4.44s2.8,2.84,4.63,2.95a1.92,1.92,0,0,0,1.92-1.92c-.22-2.12-2.07-3.53-3.7-4.71a9,9,0,0,0-2.41-1.38c-.6-.2-1.74,0-2,.62Z"/><path class="cls-6" d="M68.38,23.23c-1.88-.44-3.79,1.26-5.16,2.33s-3.76,2.92-3.28,5.1a1.56,1.56,0,0,0,1.89,1.07c1.64-.23,2.94-2.45,4-3.56s2.83-2.37,3.11-4a.82.82,0,0,0-.56-1Z"/><path class="cls-5" d="M74.15,68.11c-1.14,2.07-1.12,5.94.74,7.63a1.1,1.1,0,0,0,1.51,0c1.85-1.69,1.87-5.56.73-7.63a1.74,1.74,0,0,0-3,0Z"/><path class="cls-2" d="M105.43,7.21c-1.14,2.07-1.12,5.94.74,7.62a1.07,1.07,0,0,0,1.5,0c1.86-1.68,1.88-5.55.74-7.62a1.73,1.73,0,0,0-3,0Z"/><path class="cls-3" d="M14.48,80.44c-1.13,2.08-1.12,5.94.74,7.63a1.08,1.08,0,0,0,1.51,0c1.86-1.69,1.87-5.55.74-7.63a1.75,1.75,0,0,0-3,0Z"/><path class="cls-3" d="M139.82,65.44c-1.14,2.08-1.12,5.94.73,7.63a1.08,1.08,0,0,0,1.51,0c1.86-1.69,1.88-5.55.74-7.63a1.74,1.74,0,0,0-3,0Z"/><path class="cls-3" d="M45.82,12.11c-1.14,2.07-1.12,5.94.73,7.63a1.1,1.1,0,0,0,1.51,0c1.86-1.69,1.88-5.56.74-7.63a1.74,1.74,0,0,0-3,0Z"/><path class="cls-2" d="M125.82,127.11c-1.14,2.07-1.12,5.94.73,7.63a1.1,1.1,0,0,0,1.51,0c1.86-1.69,1.88-5.56.74-7.63a1.74,1.74,0,0,0-3,0Z"/><path class="cls-6" d="M30.82,137.11c-1.14,2.07-1.12,5.94.73,7.63a1.1,1.1,0,0,0,1.51,0c1.86-1.69,1.88-5.56.74-7.63a1.74,1.74,0,0,0-3,0Z"/><path class="cls-3" d="M101.17,98.5a1,1,0,0,1-1-1V84.83a1,1,0,0,1,2,0V97.5A1,1,0,0,1,101.17,98.5Z"/><path class="cls-3" d="M101.17,81.5a1,1,0,0,1-1-1V76.83a1,1,0,0,1,2,0V80.5A1,1,0,0,1,101.17,81.5Z"/><path class="cls-3" d="M101.17,106.83a1,1,0,0,1-1-1v-3.66a1,1,0,0,1,2,0v3.66A1,1,0,0,1,101.17,106.83Z"/><path class="cls-3" d="M121.5,61.5a1,1,0,0,1-1-1V56.83a1,1,0,1,1,2,0V60.5A1,1,0,0,1,121.5,61.5Z"/><path class="cls-3" d="M58.17,54.83a1,1,0,0,1-1-1V50.17a1,1,0,0,1,2,0v3.66A1,1,0,0,1,58.17,54.83Z"/><path class="cls-3" d="M13.17,108.17a1,1,0,0,1-1-1V103.5a1,1,0,0,1,2,0v3.67A1,1,0,0,1,13.17,108.17Z"/><path class="cls-3" d="M101.17,72.08a1,1,0,0,1-1-1v-5.5a1,1,0,0,1,2,0v5.5A1,1,0,0,1,101.17,72.08Z"/><path class="cls-5" d="M43.83,127.83a1,1,0,0,1-1-1V114.17a1,1,0,0,1,2,0v12.66A1,1,0,0,1,43.83,127.83Z"/><path class="cls-5" d="M43.83,110.83a1,1,0,0,1-1-1v-3.66a1,1,0,0,1,2,0v3.66A1,1,0,0,1,43.83,110.83Z"/><path class="cls-5" d="M43.83,136.17a1,1,0,0,1-1-1V131.5a1,1,0,0,1,2,0v3.67A1,1,0,0,1,43.83,136.17Z"/><path class="cls-5" d="M43.83,101.42a1,1,0,0,1-1-1v-5.5a1,1,0,0,1,2,0v5.5A1,1,0,0,1,43.83,101.42Z"/><path class="cls-6" d="M141.5,132.83a1,1,0,0,1-1-1V119.17a1,1,0,0,1,2,0v12.66A1,1,0,0,1,141.5,132.83Z"/><path class="cls-6" d="M141.5,115.83a1,1,0,0,1-1-1v-3.66a1,1,0,0,1,2,0v3.66A1,1,0,0,1,141.5,115.83Z"/><path class="cls-6" d="M141.5,141.17a1,1,0,0,1-1-1V136.5a1,1,0,0,1,2,0v3.67A1,1,0,0,1,141.5,141.17Z"/><path class="cls-6" d="M110.5,113.83a1,1,0,0,1-1-1v-3.66a1,1,0,0,1,2,0v3.66A1,1,0,0,1,110.5,113.83Z"/><path class="cls-6" d="M88.5,85.5a1,1,0,0,1-1-1V80.83a1,1,0,1,1,2,0V84.5A1,1,0,0,1,88.5,85.5Z"/><path class="cls-6" d="M35.5,80.17a1,1,0,0,1-1-1V75.5a1,1,0,0,1,2,0v3.67A1,1,0,0,1,35.5,80.17Z"/><path class="cls-6" d="M119.5,28.83a1,1,0,0,1-1-1V24.17a1,1,0,0,1,2,0v3.66A1,1,0,0,1,119.5,28.83Z"/><path class="cls-6" d="M13.83,65.17a1,1,0,0,1-1-1V60.5a1,1,0,0,1,2,0v3.67A1,1,0,0,1,13.83,65.17Z"/><path class="cls-6" d="M141.5,106.42a1,1,0,0,1-1-1v-5.5a1,1,0,0,1,2,0v5.5A1,1,0,0,1,141.5,106.42Z"/><path class="cls-2" d="M32.83,52.83a1,1,0,0,1-1-1V39.17a1,1,0,0,1,2,0V51.83A1,1,0,0,1,32.83,52.83Z"/><path class="cls-2" d="M32.83,35.83a1,1,0,0,1-1-1V31.17a1,1,0,0,1,2,0v3.66A1,1,0,0,1,32.83,35.83Z"/><path class="cls-2" d="M11.17,17.83a1,1,0,0,1-1-1V13.17a1,1,0,0,1,2,0v3.66A1,1,0,0,1,11.17,17.83Z"/><path class="cls-2" d="M88.83,14.17a1,1,0,0,1-1-1V9.5a1,1,0,0,1,2,0v3.67A1,1,0,0,1,88.83,14.17Z"/><path class="cls-2" d="M73.5,110.17a1,1,0,0,1-1-1V105.5a1,1,0,0,1,2,0v3.67A1,1,0,0,1,73.5,110.17Z"/><path class="cls-2" d="M102.83,139.5a1,1,0,0,1-1-1v-3.67a1,1,0,0,1,2,0v3.67A1,1,0,0,1,102.83,139.5Z"/><path class="cls-2" d="M32.83,61.17a1,1,0,0,1-1-1V56.5a1,1,0,0,1,2,0v3.67A1,1,0,0,1,32.83,61.17Z"/><path class="cls-2" d="M32.83,26.42a1,1,0,0,1-1-1v-5.5a1,1,0,0,1,2,0v5.5A1,1,0,0,1,32.83,26.42Z"/><path class="cls-3" d="M138.83,38.17a1,1,0,0,1-1-1V24.5a1,1,0,0,1,2,0V37.17A1,1,0,0,1,138.83,38.17Z"/><path class="cls-3" d="M138.83,21.17a1,1,0,0,1-1-1V16.5a1,1,0,0,1,2,0v3.67A1,1,0,0,1,138.83,21.17Z"/><path class="cls-3" d="M138.83,46.5a1,1,0,0,1-1-1V41.83a1,1,0,0,1,2,0V45.5A1,1,0,0,1,138.83,46.5Z"/><path class="cls-3" d="M138.83,11.75a1,1,0,0,1-1-1V5.25a1,1,0,0,1,2,0v5.5A1,1,0,0,1,138.83,11.75Z"/><path class="cls-6" d="M77.5,41.17a1,1,0,0,1-1-1V27.5a1,1,0,0,1,2,0V40.17A1,1,0,0,1,77.5,41.17Z"/><path class="cls-6" d="M77.5,24.17a1,1,0,0,1-1-1V19.5a1,1,0,0,1,2,0v3.67A1,1,0,0,1,77.5,24.17Z"/><path class="cls-6" d="M77.5,49.5a1,1,0,0,1-1-1V44.83a1,1,0,0,1,2,0V48.5A1,1,0,0,1,77.5,49.5Z"/><path class="cls-6" d="M77.5,14.75a1,1,0,0,1-1-1V8.25a1,1,0,0,1,2,0v5.5A1,1,0,0,1,77.5,14.75Z"/></pattern></defs><g id="Capa_2" data-name="Capa 2"><g id="PATTERN"><rect class="cls-7" width="166.67" height="500"/></g></g></svg>